<svg xmlns="http://www.w3.org/2000/svg" viewBox="0 0 240 240" role="img" aria-labelledby="title desc">
  <title id="title">Byzantine seal</title>
  <desc id="desc">A stylized imperial medallion with gold rings and a cross motif.</desc>
  <defs>
    <radialGradient id="sealCenter" cx="50%" cy="42%" r="62%">
      <stop offset="0%" stop-color="#6e4a87" />
      <stop offset="65%" stop-color="#3f274f" />
      <stop offset="100%" stop-color="#211427" />
    </radialGradient>
    <linearGradient id="sealGold" x1="0%" y1="0%" x2="100%" y2="100%">
      <stop offset="0%" stop-color="#f8ddb0" />
      <stop offset="45%" stop-color="#d4a95a" />
      <stop offset="100%" stop-color="#8f6021" />
    </linearGradient>
    <filter id="shadow" x="-20%" y="-20%" width="140%" height="140%">
      <feDropShadow dx="0" dy="8" stdDeviation="8" flood-color="#000000" flood-opacity="0.28" />
    </filter>
  </defs>
  <g filter="url(#shadow)">
    <circle cx="120" cy="120" r="100" fill="#f8ddb0" fill-opacity="0.08" />
    <circle cx="120" cy="120" r="92" fill="none" stroke="url(#sealGold)" stroke-width="10" />
    <circle cx="120" cy="120" r="79" fill="url(#sealCenter)" stroke="#f8ddb0" stroke-opacity="0.48" stroke-width="2" />
    <circle cx="120" cy="120" r="66" fill="none" stroke="#f8ddb0" stroke-opacity="0.28" stroke-width="1.5" />
    <path d="M120 69v102M69 120h102" stroke="url(#sealGold)" stroke-width="10" stroke-linecap="round" />
    <path d="M120 81v78M81 120h78" stroke="#f8ddb0" stroke-opacity="0.86" stroke-width="3.2" stroke-linecap="round" />
    <circle cx="120" cy="53" r="8" fill="url(#sealGold)" />
    <circle cx="187" cy="120" r="8" fill="url(#sealGold)" />
    <circle cx="120" cy="187" r="8" fill="url(#sealGold)" />
    <circle cx="53" cy="120" r="8" fill="url(#sealGold)" />
    <circle cx="120" cy="120" r="13" fill="url(#sealGold)" stroke="#f8ddb0" stroke-opacity="0.6" stroke-width="2" />
    <path d="M88 88l12 12M152 88l-12 12M88 152l12-12M152 152l-12-12" stroke="#f8ddb0" stroke-opacity="0.46" stroke-width="3" stroke-linecap="round" />
  </g>
</svg>
